<?xml version="1.0" encoding="UTF-8" standalone="no"?>
<!-- Created with Inkscape (http://www.inkscape.org/) -->
<svg
   xmlns:dc="http://purl.org/dc/elements/1.1/"
   xmlns:cc="http://creativecommons.org/ns#"
   xmlns:rdf="http://www.w3.org/1999/02/22-rdf-syntax-ns#"
   xmlns:svg="http://www.w3.org/2000/svg"
   xmlns="http://www.w3.org/2000/svg"
   xmlns:sodipodi="http://sodipodi.sourceforge.net/DTD/sodipodi-0.dtd"
   xmlns:inkscape="http://www.inkscape.org/namespaces/inkscape"
   id="svg2"
   sodipodi:version="0.32"
   inkscape:version="0.46"
   width="1007.7896"
   height="1005.9891"
   version="1.0"
   sodipodi:docname="oak_leaf_small_sillhouette.svg"
   inkscape:output_extension="org.inkscape.output.svg.inkscape">
  <metadata
     id="metadata7">
    <rdf:RDF>
      <cc:Work
         rdf:about="">
        <dc:format>image/svg+xml</dc:format>
        <dc:type
           rdf:resource="http://purl.org/dc/dcmitype/StillImage" />
      </cc:Work>
    </rdf:RDF>
  </metadata>
  <defs
     id="defs5">
    <inkscape:perspective
       sodipodi:type="inkscape:persp3d"
       inkscape:vp_x="0 : 526.18109 : 1"
       inkscape:vp_y="0 : 1000 : 0"
       inkscape:vp_z="744.09448 : 526.18109 : 1"
       inkscape:persp3d-origin="372.04724 : 350.78739 : 1"
       id="perspective9" />
  </defs>
  <sodipodi:namedview
     inkscape:window-height="968"
     inkscape:window-width="1280"
     inkscape:pageshadow="2"
     inkscape:pageopacity="0.0"
     guidetolerance="10.0"
     gridtolerance="10.0"
     objecttolerance="10.0"
     borderopacity="1.0"
     bordercolor="#666666"
     pagecolor="#ffffff"
     id="base"
     showgrid="false"
     inkscape:zoom="0.24234669"
     inkscape:cx="-347.20828"
     inkscape:cy="880.316"
     inkscape:window-x="-4"
     inkscape:window-y="-4"
     inkscape:current-layer="svg2" />
  <path
     style="fill:#000000"
     d="M 4.6802231,1005.7437 C 1.3415831,1005.1651 -1.0726469,1001.0074 0.48333307,998.51591 C 1.0871331,997.54901 1.3496631,995.54711 1.0667431,994.06701 C 0.50356307,991.12101 3.5649031,983.09651 7.4135131,977.43081 C 8.7085731,975.52421 19.175143,964.94921 30.672553,953.93081 C 42.169963,942.91231 54.383973,930.74721 57.814793,926.89721 C 61.245613,923.04721 66.590323,917.19721 69.691933,913.89721 C 72.793543,910.59721 78.246343,904.52221 81.809273,900.39721 C 85.372203,896.27221 88.538583,892.67221 88.845683,892.39721 C 91.807423,889.74501 135.81407,840.77327 160.28952,812.8926 C 172.81235,798.6275 174.24005,794.27907 168.69817,787.28188 C 166.99793,785.13516 162.38543,781.5214 158.44817,779.25131 C 153.45318,776.37138 147.65938,771.46271 139.27889,763.01055 C 129.54305,753.19146 125.84979,750.1787 119.77889,747.10352 C 112.39832,743.36492 101.05204,734.18157 101.53952,732.34109 C 101.67702,731.82196 101.36984,731.39722 100.85691,731.39722 C 99.907453,731.39722 98.230873,727.51198 98.591393,726.14722 C 98.700363,725.73472 98.339523,725.39722 97.789523,725.39722 C 97.239523,725.39722 96.888043,725.05972 97.008443,724.64722 C 97.128853,724.23472 96.648473,721.19722 95.940933,717.89722 C 95.233403,714.59722 94.494313,710.99722 94.298523,709.89722 C 94.102733,708.79722 93.870613,707.89722 93.782703,707.89722 C 93.694783,707.89722 93.482293,706.99722 93.310503,705.89722 C 93.138713,704.79722 92.106123,700.53704 91.015873,696.43015 C 89.339273,690.11454 89.081693,686.41359 89.345503,672.43015 C 89.517053,663.33704 89.316833,657.02222 88.900573,658.39722 L 88.143733,660.89722 L 87.578973,657.89722 C 87.268363,656.24722 86.236233,652.19722 85.285363,648.89722 C 83.288983,641.96881 82.589503,630.16757 84.233453,631.15001 C 84.814293,631.49713 84.705173,631.05982 83.990963,630.17821 C 83.117943,629.10056 83.036023,628.36291 83.740963,627.92723 C 84.317673,627.57081 84.782633,626.51824 84.774213,625.5882 C 84.763053,624.35653 84.541473,624.23972 83.958423,625.15818 C 82.391843,627.62594 83.518313,594.00447 85.225473,587.34078 C 87.334273,579.10931 92.784643,571.90171 101.52705,565.78344 C 110.66574,559.38784 110.46709,559.62031 108.23577,557.93277 C 107.16533,557.1232 106.68212,556.44652 107.16196,556.42902 C 107.64181,556.41153 107.42471,555.66258 106.67952,554.76468 C 105.70888,553.59512 105.30034,549.55383 105.23897,540.51468 C 105.10679,521.04307 104.07862,514.8737 98.803113,501.89722 C 97.237913,498.04722 94.333993,489.82368 92.349953,483.6227 C 85.372863,461.81625 83.643713,459.39722 75.033293,459.39722 C 71.630323,459.39722 71.526673,459.3069 73.348393,457.92902 C 75.147383,456.56834 74.954463,456.4585 70.713833,456.42902 C 65.732673,456.3944 61.789523,459.25872 61.789523,462.91167 C 61.789523,464.33138 61.505743,464.51344 60.640873,463.64857 C 59.006193,462.01389 62.005193,457.73888 66.184863,455.74574 C 68.866683,454.46687 70.957913,454.33422 77.385923,455.03526 C 95.833653,457.04716 97.374923,455.79768 97.128633,439.03016 C 97.001653,430.38515 96.647133,427.89704 95.446603,427.22519 C 93.937823,426.38084 88.795193,416.1941 88.783363,414.02638 C 88.779973,413.40534 88.196743,411.77222 87.487283,410.39722 C 86.777833,409.02222 85.135933,405.26684 83.838623,402.05192 C 81.990673,397.47245 81.757223,396.03521 82.760603,395.41509 C 83.729203,394.81646 83.282453,393.52057 80.927483,390.09774 C 79.214873,387.60854 77.245713,385.34314 76.551583,385.06352 C 75.700293,384.72059 75.795253,384.52942 76.843353,384.47617 C 77.697963,384.43275 79.923743,385.97222 81.789523,387.89722 C 83.655303,389.82222 85.543583,391.39722 85.985693,391.39722 C 86.427803,391.39722 86.789523,387.76594 86.789523,383.3277 C 86.789523,370.1492 81.203183,359.15368 70.271653,350.81579 C 67.781783,348.91668 65.210653,348.0644 60.751523,347.66006 C 54.876463,347.12733 54.120153,345.44765 59.739523,345.41253 C 61.546553,345.40124 61.895853,345.10355 61.070523,344.27822 C 59.306503,342.5142 52.346523,343.07241 47.914693,345.33336 C 43.393083,347.64012 41.789523,347.90318 41.789523,346.3382 C 41.789523,345.75574 42.188533,345.52579 42.676213,345.82719 C 43.163893,346.1286 44.143623,345.67548 44.853383,344.82027 C 47.063753,342.15694 51.224343,340.54072 57.372283,339.95719 C 71.761853,338.5914 85.679513,344.64158 99.358463,358.20908 C 107.08336,365.87106 110.09198,367.89613 104.46644,361.64722 C 101.54249,358.39926 104.21059,358.86948 107.30355,362.14722 C 109.70708,364.69435 112.34172,368.4888 122.24257,383.66265 C 124.31162,386.83364 131.46862,395.12432 138.147,402.0864 C 149.59703,414.0228 154.51802,418.11159 173.42347,431.39722 C 177.72805,434.42222 184.40887,439.73902 188.26975,443.21234 C 202.06849,455.62596 214.81584,459.51256 224.00477,454.10777 C 234.90402,447.697 238.53816,439.38765 241.80974,413.39722 C 242.95207,404.32222 244.06901,396.22222 244.29182,395.39722 C 244.80185,393.50877 245.66891,384.91285 246.22763,376.20599 C 246.46379,372.52581 247.55179,362.62581 248.64541,354.20599 C 251.00503,336.03921 253.20016,305.64563 253.36223,288.89722 C 253.4261,282.29722 253.8396,272.91472 254.28113,268.04721 C 254.92905,260.90445 254.81438,259.03067 253.68672,258.33394 C 252.23141,257.43478 252.19961,256.64596 252.80251,236.39722 C 253.15743,224.47725 251.14714,211.42385 247.73494,203.49198 L 238.28952,188.73941 C 237.27153,177.18584 228.9016,180.90235 253.55968,181.16248 C 279.20668,181.51551 279.35244,181.43528 286.15344,163.22194 C 294.09849,141.94476 295.27376,137.2734 300.21975,107.31201 C 300.99923,102.59015 301.76493,91.677646 301.92131,83.062006 C 302.1806,68.775916 302.36334,67.397216 303.99757,67.397216 C 304.98314,67.397216 305.78952,68.056386 305.78952,68.862036 C 305.78952,69.667686 306.69253,70.810126 307.79621,71.400796 C 309.43394,72.277286 310.24269,72.034956 312.19483,70.082816 C 314.68043,67.597216 316.08033,62.475946 317.71258,49.897216 C 318.76524,41.785026 322.90274,28.682876 326.08579,23.381906 C 329.76473,17.255106 347.68182,-1.1104842 348.84515,0.052845801 C 349.5394,0.7470958 348.37062,3.1046458 345.19067,7.4242958 C 342.61933,10.917216 340.22959,14.844106 339.88015,16.150726 C 338.9568,19.603256 340.54177,39.134236 342.1724,44.397216 C 342.93922,46.872216 343.87511,50.697216 344.25214,52.897216 C 344.62917,55.097216 346.65527,62.297216 348.75458,68.897216 C 352.9839,82.193696 355.49082,91.979806 355.92739,96.897216 C 356.19904,99.956946 363.21398,111.61919 366.11271,113.83016 C 370.3026,117.02594 373.19612,117.08153 376.2527,114.02495 C 382.44153,107.83612 380.95097,94.209916 373.42944,88.215606 C 372.26892,87.290726 371.65195,86.201446 372.0584,85.794996 C 373.09213,84.761266 377.51994,89.115446 380.38158,93.979776 C 382.29438,97.231236 382.98187,100.3866 383.75872,109.47978 C 386.77087,144.73779 388.06723,155.1791 389.84504,158.50096 C 390.37901,159.4987 393.09018,167.64603 395.86985,176.60613 C 406.62896,211.28747 415.36009,228.57459 436.4635,256.97913 C 444.85956,268.27997 448.69238,271.71851 456.9489,275.35722 C 464.42733,278.65301 469.34614,278.88451 479.35581,276.41176 C 491.91179,273.30998 517.14587,263.16408 526.16708,257.59028 C 534.27511,252.58068 549.16911,239.27497 562.20298,225.39722 C 566.5937,220.72222 576.9877,210.14722 585.30075,201.89722 C 601.80883,185.51435 607.0086,179.51808 613.92343,168.89011 C 616.43088,165.0362 622.87225,157.1612 628.23758,151.39011 C 637.73122,141.17851 649.66298,125.47114 653.29992,118.39722 C 654.28962,116.47222 655.85015,113.77222 656.76776,112.39722 C 664.3438,101.04482 667.81663,95.373626 669.09337,92.269296 C 669.91402,90.273936 671.08137,88.334876 671.68749,87.960276 C 672.2936,87.585676 672.78952,86.432296 672.78952,85.397216 C 672.78952,83.074986 674.74822,81.712356 675.7519,83.336346 C 676.24152,84.128576 677.96525,82.770496 680.863,79.309456 C 689.13354,69.431196 701.38646,63.851536 712.03819,65.113076 C 717.05582,65.707336 725.46882,69.133936 732.78952,73.565046 C 734.71452,74.730216 738.76452,76.555056 741.78952,77.620246 C 747.52154,79.638656 749.56979,80.950276 748.5626,81.957466 C 747.46776,83.052306 735.33993,79.151086 730.55743,76.165666 C 724.42996,72.340656 719.04325,71.557316 715.98836,74.047006 L 713.71811,75.897216 L 717.50382,76.044316 C 721.75354,76.209436 738.94826,80.925956 742.78952,82.980186 C 746.3792,84.899876 743.84081,84.695556 735.54696,82.397216 C 722.38393,78.749556 709.52262,80.154566 705.59587,85.669166 C 703.37074,88.794076 703.38186,90.683476 705.73554,109.39722 C 707.04059,119.77342 716.33399,153.78961 719.40566,159.43328 C 723.6111,167.16005 730.53891,175.22281 735.0373,177.62577 C 738.82559,179.6494 740.65332,179.89207 751.78952,179.85003 C 761.83556,179.8121 765.63379,179.37086 771.13697,177.60246 C 782.68383,173.89198 793.93232,168.01168 801.73042,161.60939 C 805.82292,158.24941 813.47292,153.1214 818.73042,150.21381 C 824.06342,147.26447 830.72112,142.56071 833.78952,139.57429 C 836.81452,136.63015 842.21452,132.7144 845.78952,130.87264 C 853.80762,126.7419 868.42072,114.61502 873.50262,107.87449 C 878.59992,101.11372 885.47992,94.700806 888.92382,93.500256 C 893.51152,91.900956 893.09162,93.840936 887.77332,98.815596 L 882.78952,103.47737 L 882.78952,110.81645 C 882.78952,116.56595 883.34342,119.36548 885.34702,123.74185 C 888.45322,130.52669 888.53002,130.54748 908.78952,130.08706 C 919.30392,129.84811 924.49002,129.29652 927.65692,128.0803 C 930.05902,127.15783 934.70152,125.97194 937.97342,125.445 C 941.56682,124.86631 945.96202,123.23202 949.07302,121.31782 C 954.79102,117.79947 960.00432,116.71398 963.78952,118.25359 C 966.09652,119.19195 965.97622,119.27534 962.23062,119.33383 C 959.99832,119.3687 957.29832,120.05791 956.23062,120.86542 C 954.41602,122.2379 954.55032,122.34027 958.28952,122.4357 C 961.45442,122.51648 961.87192,122.71723 960.28952,123.39722 C 955.94852,125.2626 965.65842,124.37265 972.41452,122.28591 C 977.80812,120.62 981.06772,120.2615 987.86632,120.58655 C 995.66002,120.95917 996.89792,121.30393 1000.8331,124.19786 C 1003.2258,125.95751 1005.7699,127.39722 1006.4865,127.39722 C 1007.2032,127.39722 1007.7895,128.34199 1007.7895,129.4967 C 1007.7895,131.38609 1007.3374,131.55106 1003.2714,131.1453 C 1000.7865,130.89731 998.51432,130.45536 998.22212,130.16319 C 996.36682,128.30787 985.78952,133.4608 985.78952,136.21996 C 985.78952,136.67247 983.65202,138.09654 981.03952,139.38457 C 969.77202,144.93969 956.28182,156.93329 948.59972,168.2255 C 946.85172,170.79494 945.16682,173.12222 944.85552,173.39722 C 943.99312,174.15902 941.89612,177.64098 940.84882,180.05008 C 940.33402,181.23415 939.40742,182.51537 938.78952,182.89722 C 938.17162,183.27907 937.22072,184.56029 936.67642,185.74436 C 936.13202,186.92843 934.58602,189.69722 933.24092,191.89722 C 925.47402,204.60009 925.42412,208.03797 932.96792,210.70494 C 941.89302,213.86022 947.47812,215.63318 953.71192,217.28994 C 959.68952,218.87861 963.13412,221.38596 961.53532,222.98471 C 961.15952,223.3606 959.72872,222.93218 958.35592,222.03268 C 956.98312,221.13318 955.28152,220.3989 954.57472,220.40096 C 953.86782,220.40301 954.83872,221.34912 956.73212,222.5034 C 959.69642,224.31049 959.94092,224.73301 958.49152,225.54412 C 957.34732,226.18447 955.27082,225.94009 952.00722,224.78096 C 948.94092,223.6919 946.17672,223.33421 944.35682,223.79098 C 942.56842,224.23982 936.99782,229.09381 929.39842,236.82502 C 918.08522,248.33436 911.12052,253.39598 906.59442,253.39772 C 905.07592,253.39831 896.84852,256.48708 891.78952,258.95585 C 886.46312,261.55513 878.08352,270.1452 873.80012,277.39722 C 871.68852,280.97222 867.10322,287.27222 863.61062,291.39722 C 857.24592,298.91442 853.37782,306.12375 850.19732,316.39722 C 849.26082,319.42222 847.99842,322.22783 847.39202,322.63191 C 846.78562,323.03599 846.61792,323.37349 847.01922,323.38191 C 847.42052,323.39033 846.86172,324.85972 845.77732,326.64722 C 844.69302,328.43472 843.30142,331.02222 842.68492,332.39722 C 842.06852,333.77222 840.97752,336.02788 840.26052,337.40981 C 839.54352,338.79173 838.65722,341.93222 838.29082,344.38868 C 837.92442,346.84514 837.40192,349.21543 837.12962,349.656 C 836.15802,351.22808 842.10332,359.70884 848.64182,366.07754 C 856.47332,373.70581 865.09452,378.16394 883.78952,384.25291 C 901.37912,389.98185 904.31602,390.2079 918.51362,386.92562 C 924.99042,385.4283 935.01452,382.81559 940.78952,381.1196 C 948.82242,378.76052 953.01152,378.07489 958.61822,378.2016 C 963.43472,378.31044 966.93122,377.85817 968.81852,376.88222 C 975.33062,373.5147 975.51422,376.25527 969.18742,382.38675 L 964.58532,386.84674 L 967.93742,387.66503 C 974.45942,389.25714 974.49182,389.30886 970.91682,392.4302 C 969.07962,394.03419 966.04452,395.63396 964.17202,395.98525 C 962.29952,396.33653 960.52082,397.02293 960.21942,397.51058 C 959.91812,397.99823 958.84852,398.39722 957.84272,398.39722 C 956.09592,398.39722 946.38712,404.39185 944.28952,406.7656 C 942.80572,408.44471 935.27542,414.28799 926.78952,420.3451 C 919.66942,425.42734 908.65732,435.96732 906.71112,439.56284 C 905.98192,440.90982 906.66842,441.64428 910.29952,443.40205 C 912.76902,444.59752 914.78952,445.98549 914.78952,446.48643 C 914.78952,447.78039 913.59522,447.56486 911.34842,445.86542 C 910.28072,445.05791 908.29852,444.39722 906.94342,444.39722 C 904.61982,444.39722 904.57372,444.50132 906.13452,446.22596 C 907.04482,447.23177 907.78952,448.35677 907.78952,448.72596 C 907.78952,449.09515 899.57702,449.39973 889.53952,449.4028 C 879.41202,449.40589 869.53542,449.89538 867.34822,450.50261 C 862.82042,451.75971 849.63462,457.79393 845.84932,460.3412 C 844.44142,461.28859 838.37452,465.17627 832.36722,468.98048 C 821.95052,475.57709 814.94572,481.53505 810.05292,487.96019 C 808.82282,489.57556 807.81032,491.35182 807.80292,491.90744 C 807.79552,492.46306 806.66452,494.13092 805.28952,495.61379 C 803.91452,497.09667 802.78952,498.69623 802.78952,499.16836 C 802.78952,500.71262 795.98692,503.31467 789.06902,504.41653 C 773.11112,506.95827 770.84619,507.67683 754.16465,515.49002 C 749.69597,517.58303 744.34553,520.89338 742.27477,522.84636 C 740.20402,524.79933 738.12271,526.39722 737.64964,526.39722 C 737.17657,526.39722 736.78952,527.00068 736.78952,527.73825 C 736.78952,528.47581 734.31452,531.71756 731.28952,534.94213 C 728.26452,538.16671 725.78952,540.97039 725.78952,541.17254 C 725.78952,541.37468 725.22702,542.13307 724.53952,542.85784 C 719.72835,547.92983 711.23519,563.69128 712.34535,565.48756 C 712.65456,565.98787 712.45139,566.39722 711.89385,566.39722 C 711.33631,566.39722 710.58467,567.97222 710.22354,569.89722 C 709.86241,571.82222 709.19286,573.39722 708.73565,573.39722 C 708.27844,573.39722 708.07586,574.28776 708.28547,575.37619 C 708.49508,576.46463 708.24425,577.61618 707.72805,577.93521 C 707.21186,578.25423 706.78541,579.2762 706.78038,580.20624 C 706.76668,582.73857 702.26684,591.5412 701.41928,590.69365 C 701.01477,590.28914 700.96328,590.68645 701.30484,591.57655 C 701.64641,592.46665 701.46484,593.47985 700.90137,593.82809 C 700.33789,594.17634 700.16399,595.23436 700.51491,596.17925 C 701.57985,599.04667 708.30147,607.62895 713.18406,612.35543 C 718.31563,617.32293 718.76145,618.39722 715.69132,618.39722 L 713.59312,618.39722 L 715.62073,621.59961 C 720.61359,629.48529 729.47144,637.84307 740.68647,645.25024 C 747.06815,649.46514 756.33952,655.67574 761.28952,659.05158 C 770.7968,665.53542 779.66495,669.74654 786.29092,670.92372 C 790.96982,671.75497 802.05632,674.95754 816.78952,679.73389 C 822.56452,681.60608 829.31452,683.44641 831.78952,683.82352 C 836.23932,684.50154 845.28312,686.44576 861.78952,690.27293 C 869.24172,692.0008 884.62592,698.89415 883.51322,700.00688 C 883.28952,700.23055 879.77272,698.8928 875.69802,697.0341 C 871.62332,695.1754 866.26452,693.42344 863.78952,693.14085 C 859.34432,692.6333 859.32602,692.64335 862.28952,693.96703 C 863.93952,694.70402 866.10362,695.32731 867.09852,695.35212 C 868.09352,695.37692 868.63342,695.84072 868.29842,696.38277 C 867.96342,696.92482 865.24972,697.26232 862.26802,697.13277 C 856.19162,696.86876 854.59492,697.93571 850.81382,704.78652 L 848.66722,708.67581 L 851.97832,712.10539 C 856.30092,716.58259 872.23492,726.06985 880.65422,729.17931 C 886.31782,731.27102 888.90042,731.6125 898.28952,731.51109 C 915.20402,731.32841 940.03942,730.40837 942.46662,729.87452 C 945.40852,729.2275 947.72582,724.45726 946.58992,721.38663 C 945.59282,718.69128 946.39262,715.57238 947.71992,716.98 C 948.19562,717.48447 949.06612,721.49722 949.65432,725.89722 C 951.06902,736.47965 950.29852,737.5215 937.01012,742.9946 C 931.44702,745.28588 923.06842,749.46381 918.39102,752.27889 C 913.71372,755.09397 909.43172,757.39722 908.87562,757.39722 C 906.05282,757.39722 896.33772,761.93015 893.51082,764.56628 C 891.73912,766.21842 889.38952,767.95273 888.28952,768.42031 C 886.73202,769.08236 887.17452,769.27757 890.28952,769.30262 C 892.83652,769.32311 895.74252,768.43986 898.28952,766.87113 C 902.52042,764.26523 905.27372,763.75358 906.28242,765.38577 C 906.63022,765.94852 906.23762,766.12266 905.37082,765.79006 C 904.53342,765.46872 902.71192,766.09972 901.32292,767.19228 C 899.93392,768.28484 896.13652,769.97585 892.88422,770.95008 C 886.63252,772.82277 886.59472,773.02453 891.78952,776.79229 C 894.28902,778.60515 894.28832,778.6054 888.28952,778.08841 C 884.72652,777.78134 879.64942,776.3687 875.78952,774.61039 C 867.97832,771.05218 857.74832,768.39722 851.84922,768.39722 C 846.99072,768.39722 815.42942,771.18382 812.18142,771.89956 C 807.41512,772.94987 796.85462,786.4929 796.03462,792.60668 C 795.75802,794.66877 795.13972,796.11366 794.66062,795.81756 C 793.41572,795.04817 793.55172,795.64766 795.72142,800.49376 C 796.78392,802.86698 797.43232,805.16612 797.16232,805.60296 C 796.89242,806.0398 797.03552,806.39754 797.48052,806.39793 C 797.92542,806.39831 798.35932,807.60165 798.44462,809.072 C 798.64622,812.54936 801.46722,814.58095 809.09212,816.74013 C 817.99742,819.26188 823.99352,821.52659 823.38252,822.13757 C 822.51302,823.007 804.83742,817.94475 799.64872,815.3403 C 798.35102,814.68889 798.11412,814.92234 798.51542,816.45697 C 799.45912,820.06587 795.23352,818.60066 789.69122,813.39722 C 786.76202,810.64722 784.05852,808.39722 783.68332,808.39722 C 783.30802,808.39722 781.61828,807.10553 779.92824,805.5268 C 778.23821,803.94808 775.28473,801.91103 773.36496,801.00004 C 771.4452,800.08906 769.6038,798.90574 769.27298,798.37046 C 768.94216,797.83518 767.63373,797.39722 766.36536,797.39722 C 765.09699,797.39722 762.98605,796.55305 761.67438,795.52129 C 760.36271,794.48953 759.06452,793.62176 758.78952,793.59292 C 758.51452,793.56407 756.03952,792.56059 753.28952,791.36297 C 738.07808,784.73838 724.13861,781.28127 707.28952,779.95458 C 702.88952,779.60812 698.16452,779.12152 696.78952,778.87323 C 694.04609,778.37785 652.70444,779.90675 646.28952,780.74083 C 644.08952,781.02688 636.0839,781.75248 628.49925,782.35328 C 620.91461,782.95408 612.97769,784.13836 610.86166,784.98503 C 606.80992,786.60622 589.35081,791.36412 586.78952,791.5451 C 585.96452,791.6034 581.23952,792.47144 576.28952,793.47408 C 571.33952,794.47673 566.04816,795.51551 564.53094,795.78248 C 563.01373,796.04946 560.98873,796.49061 560.03094,796.76283 C 559.07316,797.03504 555.66109,797.54084 552.44856,797.88683 C 549.23604,798.23281 545.56981,798.91045 544.30139,799.39271 C 543.03297,799.87496 541.79084,800.06521 541.54112,799.81548 C 541.29139,799.56575 539.22137,801.05698 536.94108,803.12933 C 533.11826,806.60352 532.70849,807.47805 531.68401,814.3488 C 531.07292,818.44717 530.86572,823.84717 531.22357,826.3488 C 531.58142,828.85043 532.09214,833.59722 532.35851,836.89722 C 533.16701,846.91382 533.54081,848.08662 540.36236,862.00882 C 548.34217,878.29491 553.13213,883.83971 569.04428,895.21091 C 575.22916,899.63081 581.73963,904.29341 583.51199,905.57211 C 585.28435,906.85091 586.74685,908.49971 586.76199,909.23611 C 586.77921,910.07331 585.63674,909.60501 583.71279,907.98611 C 579.98335,904.84801 578.79708,904.71011 579.52654,907.49961 C 579.8442,908.71431 579.48803,910.02071 578.68292,910.59391 C 577.59889,911.36561 577.68471,911.45831 579.06945,911.01141 C 581.29667,910.29261 587.61933,915.96741 586.18705,917.39971 C 585.66348,917.92321 582.5894,919.26191 579.35576,920.37441 C 569.08436,923.90831 550.94959,922.86041 535.97199,917.86761 C 523.74839,913.79281 500.93235,912.72061 494.72728,915.92941 C 491.4532,917.62251 488.78952,922.05491 488.78952,925.81001 C 488.78952,929.19301 492.39063,938.62041 494.9029,941.81421 C 496.02038,943.23491 496.52176,944.39721 496.01709,944.39721 C 494.74201,944.39721 492.14916,941.29921 491.41383,938.89721 C 491.07709,937.79721 489.67386,935.58971 488.29555,933.99171 C 486.91723,932.39361 485.76505,930.14361 485.73514,928.99171 C 485.64444,925.49881 482.49084,918.79191 478.78952,914.22021 C 470.88084,904.45181 454.06998,891.27661 447.74106,889.88661 C 446.19372,889.54671 444.39152,888.62261 443.73617,887.83291 C 443.08082,887.04331 441.96223,886.39721 441.25041,886.39721 C 440.53859,886.39721 439.80619,886.05161 439.62285,885.62911 C 439.1442,884.52621 430.43713,879.14311 422.32533,874.93491 C 418.49503,872.94791 415.12003,870.97811 414.82533,870.55752 C 413.96903,869.33572 407.56121,866.61492 404.28952,866.08402 C 402.63952,865.81632 400.16452,865.15612 398.78952,864.61702 C 397.41452,864.07792 395.83952,863.59392 395.28952,863.54152 C 392.35888,863.26242 388.1368,862.04322 387.03952,861.15932 C 386.35202,860.60542 385.78952,860.50222 385.78952,860.92972 C 385.78952,861.35732 385.00202,860.99452 384.03952,860.12342 C 383.07702,859.25242 381.83952,858.44672 381.28952,858.33312 C 380.73952,858.21952 379.38952,857.77402 378.28952,857.34322 C 373.71321,855.55092 372.25377,855.08682 371.60327,855.21722 C 371.22584,855.29282 368.12971,854.46432 364.723,853.37592 C 361.31629,852.28762 358.16689,851.39722 357.72435,851.39722 C 357.2818,851.39722 355.65292,850.87242 354.10462,850.23102 C 352.55631,849.58962 350.95202,848.97082 350.53952,848.85602 C 350.12702,848.74122 349.56452,848.53472 349.28952,848.39722 C 349.01452,848.25972 348.45202,848.07182 348.03952,847.97962 C 347.62702,847.88732 345.66794,847.25552 343.68601,846.57532 C 340.12586,845.35372 337.18534,844.61112 333.28952,843.95012 C 320.75129,841.82252 316.43563,841.31904 315.10716,841.82882 C 314.24303,842.16042 313.03056,842.02092 312.41277,841.51882 C 311.79498,841.01666 308.81452,840.34913 305.78952,840.03537 C 298.73939,839.30412 297.15092,838.9287 292.28952,836.84482 C 290.08952,835.90177 283.56452,834.54203 277.78952,833.82319 C 264.74206,832.1991 261.56538,831.6427 258.34093,830.41677 C 256.93765,829.88324 255.78952,829.63635 255.78952,829.86811 C 255.78952,830.09987 253.24407,829.41374 250.13297,828.34336 C 247.02187,827.27298 243.86292,826.39722 243.1131,826.39722 C 242.36327,826.39722 239.9162,825.23974 237.67517,823.82503 C 235.43413,822.41033 233.36376,821.48965 233.07434,821.77907 C 232.78492,822.06849 230.95226,821.22087 229.00177,819.89548 C 227.05128,818.57008 225.01106,817.7603 224.46796,818.09595 C 223.92486,818.43161 223.74258,818.28219 224.06289,817.76392 C 224.3832,817.24564 223.41226,816.27581 221.90524,815.60874 C 220.39822,814.94166 218.25084,813.54402 217.13329,812.50286 C 212.14723,807.85764 203.92559,806.37955 200.21281,809.46088 C 199.40342,810.13262 198.48956,810.4306 198.18202,810.12305 C 197.87448,809.81551 196.76035,810.42639 195.70619,811.48055 C 194.65202,812.53472 193.08796,813.39722 192.2305,813.39722 C 191.37304,813.39722 190.89857,813.76465 191.17612,814.21374 C 191.45367,814.66282 190.32249,815.8326 188.66239,816.81325 C 187.00229,817.79389 182.41426,822.03285 178.46677,826.23316 C 174.51928,830.43346 168.13952,837.07013 164.28952,840.98132 C 156.60772,848.78522 146.25717,860.20532 142.61648,864.89402 C 141.33665,866.54222 137.34105,870.92971 133.73737,874.64401 C 130.13368,878.35821 127.43368,881.41151 127.73737,881.42901 C 128.04105,881.44651 127.60756,882.00901 126.77406,882.67901 C 125.94055,883.34901 123.69055,885.91431 121.77406,888.37961 C 119.85756,890.84491 117.61452,893.55771 116.78952,894.40791 C 115.96452,895.25821 113.26452,898.36241 110.78952,901.30621 C 108.31452,904.25001 105.72702,907.24261 105.03952,907.95641 C 104.35202,908.67031 103.78952,909.53051 103.78952,909.86801 C 103.78952,910.48641 102.58174,912.09841 99.753053,915.25541 C 98.907983,916.19851 97.151283,918.69381 95.849263,920.80051 C 94.547233,922.90731 91.785313,926.59121 89.711663,928.98721 C 87.638003,931.38311 85.651883,934.25551 85.298063,935.37031 C 84.944243,936.48511 84.235073,937.39721 83.722133,937.39721 C 83.209203,937.39721 82.789523,938.07221 82.789523,938.89721 C 82.789523,939.72221 82.378123,940.39721 81.875293,940.39721 C 81.372473,940.39721 79.576633,942.64721 77.884543,945.39721 C 76.192453,948.14721 74.327293,950.39721 73.739753,950.39721 C 73.152203,950.39721 72.899993,950.76691 73.179283,951.21881 C 73.458563,951.67071 72.790973,952.80771 71.695743,953.74551 C 70.600523,954.68321 69.975133,955.88851 70.305993,956.42381 C 70.636853,956.95921 70.461323,957.39721 69.915923,957.39721 C 69.370533,957.39721 68.638653,958.29721 68.289523,959.39721 C 67.940393,960.49721 66.983513,961.39721 66.163123,961.39721 C 65.342723,961.39721 64.946263,961.84181 65.282103,962.38521 C 65.617943,962.92861 64.722563,964.61611 63.292383,966.13521 C 61.862193,967.65431 59.741393,970.56641 58.579493,972.60651 C 57.417593,974.64671 56.078383,976.07571 55.603463,975.78221 C 55.128543,975.48871 54.822563,975.61951 54.923503,976.07291 C 55.024453,976.52631 54.723283,977.79721 54.254233,978.89721 C 53.258713,981.23191 50.803453,983.91641 50.759113,982.71861 C 50.742393,982.26681 50.264733,982.69421 49.697653,983.66821 C 49.130573,984.64231 48.174733,985.13531 47.573553,984.76371 C 46.894003,984.34371 46.768333,984.55391 47.241363,985.31931 C 47.995803,986.54001 44.767853,990.39721 42.991853,990.39721 C 42.507133,990.39721 41.586403,991.54761 40.945783,992.95361 C 40.305163,994.35961 39.332933,995.23301 38.785273,994.89461 C 38.237613,994.55611 37.789523,994.86971 37.789523,995.59141 C 37.789523,997.14131 32.453013,1002.3972 30.879333,1002.3972 C 30.279933,1002.3972 29.789523,1002.7947 29.789523,1003.2806 C 29.789523,1003.7664 28.777023,1004.4776 27.539523,1004.8609 C 24.759313,1005.722 8.2375631,1006.3601 4.6802231,1005.7437 z M 135.50865,624.88686 C 137.59526,614.63519 136.29973,589.39722 133.68687,589.39722 C 133.19333,589.39722 132.78952,588.89524 132.78952,588.2817 C 132.78952,586.27724 124.053,574.03733 118.08616,567.68224 L 112.25088,561.46725 L 105.95981,565.445 C 96.729283,571.28134 89.789523,578.54527 89.789523,582.37064 C 89.789523,588.4793 95.574523,597.82771 106.19119,608.87532 C 111.74527,614.65485 118.20146,621.43312 120.53828,623.93814 C 124.80251,628.50931 129.99073,631.54663 132.78952,631.11033 C 133.76156,630.9588 134.71862,628.76831 135.50865,624.88686 z M 842.70622,134.68019 C 842.93532,134.52456 842.42102,134.39722 841.56322,134.39722 C 840.70532,134.39722 839.72002,135.13587 839.37362,136.03866 C 838.82522,137.4677 838.97312,137.50432 840.51662,136.32163 C 841.49172,135.57447 842.47702,134.83582 842.70622,134.68019 z M 847.61602,132.89035 C 847.31882,132.59324 846.29862,132.64836 845.34882,133.01284 C 843.99172,133.53359 843.90572,133.85103 844.94732,134.49474 C 846.27752,135.31686 848.62892,133.90324 847.61602,132.89035 z M 997.34842,124.86542 C 995.14612,123.19973 991.01922,122.96517 988.78952,124.37896 C 987.72882,125.05149 988.69222,125.30252 992.07862,125.23604 C 994.71252,125.18432 997.15002,125.42443 997.49522,125.76961 C 997.84042,126.1148 998.38532,126.38291 998.70622,126.36542 C 999.02702,126.34792 998.41602,125.67292 997.34842,124.86542 z M 808.32672,824.28465 C 804.66782,823.75162 801.60952,822.6617 800.41172,821.46389 C 798.47562,819.52777 798.52032,819.52756 805.87462,821.43737 C 809.95282,822.49644 815.31452,823.37755 817.78952,823.3954 C 820.26452,823.41324 822.96452,823.86406 823.78952,824.39722 C 825.66082,825.60652 816.96572,825.54322 808.32672,824.28465 z"
     id="path2384"
     sodipodi:nodetypes="csssssssssssssssssssssssscccsssssssssssssssssssssssssssssssssssssssssssssssssssssssssscccsssssssssssssssssssssssssssssssssssssssssssscccsssssssssssssscccssssssssssssssssssssssssssssssssssssssssssssssssssssscccssssssssssssssssssssssssssssssssssssssssscccssssssssssssscccssssssssssssssssssssssssssssssssssssssssssssssssssssssssssssssssssssssssssssssssssssssssssssssssssssssssssssssssssssssssssssssssssssssssssssssssssssssssssssssssssssccsscccssssccsssccssccssssccssssc" />
</svg>
